PathFileType	4	(X/Y/Z)	s01c0102.trc
DataRate	CameraRate	NumFrames	NumMarkers	Units	OrigDataRate	OrigDataStartFrame	OrigNumFrames
200	200	4	48	mm	200	250	2000
Frame#	Time	racr			lacr			c7			jug			rlel			rdr			llel			ldr			s2			lic			ric			lasi			rasi			rpsi			lpsi			rgt			lgt			rth1			rth2			rth3			rth4			rlfc			rsh1			rsh2			rsh3			rsh4			rlmal			rmmal			rcal			rtoe			rmt5			lth1			lth2			lth4			lth3			llfc			lsh1			lsh2			lsh3			lsh4			llmal			lmmal			lcal			ltoe			lmt5			SBIKE			LBIKE			RBIKE			
		X1	Y1	Z1	X2	Y2	Z2	X3	Y3	Z3	X4	Y4	Z4	X5	Y5	Z5	X6	Y6	Z6	X7	Y7	Z7	X8	Y8	Z8	X9	Y9	Z9	X10	Y10	Z10	X11	Y11	Z11	X12	Y12	Z12	X13	Y13	Z13	X14	Y14	Z14	X15	Y15	Z15	X16	Y16	Z16	X17	Y17	Z17	X18	Y18	Z18	X19	Y19	Z19	X20	Y20	Z20	X21	Y21	Z21	X22	Y22	Z22	X23	Y23	Z23	X24	Y24	Z24	X25	Y25	Z25	X26	Y26	Z26	X27	Y27	Z27	X28	Y28	Z28	X29	Y29	Z29	X30	Y30	Z30	X31	Y31	Z31	X32	Y32	Z32	X33	Y33	Z33	X34	Y34	Z34	X35	Y35	Z35	X36	Y36	Z36	X37	Y37	Z37	X38	Y38	Z38	X39	Y39	Z39	X40	Y40	Z40	X41	Y41	Z41	X42	Y42	Z42	X43	Y43	Z43	X44	Y44	Z44	X45	Y45	Z45	X46	Y46	Z46	X47	Y47	Z47	X48	Y48	Z48	
250	1.2500	488.731622	1308.861454	-163.973160	457.716270	1313.865069	-463.502699	416.663275	1390.781385	-304.788495	428.963739	1221.880391	-303.661304	566.604574	1055.124711	-49.698571	736.180062	854.273978	-89.335661	508.600718	1039.354420	-564.884232	0.000000	0.000000	-0.000000	-109.375869	1184.323736	-238.343312	89.022528	1224.454228	-458.048844	67.876263	1175.624353	-102.194296	83.131957	1148.786723	-433.361848	85.840133	1128.772013	-126.626914	-72.267774	1220.594475	-188.100884	-84.782552	1230.111146	-292.864153	12.942192	1058.965858	-65.944243	0.459199	1075.719975	-449.089861	108.219465	966.047663	-61.927788	165.630312	907.412963	-74.625838	223.133723	839.584702	-89.172565	201.954040	943.120297	-94.665953	256.055227	730.743611	-114.179495	183.647193	638.160835	-75.417308	139.728537	565.475928	-76.481705	85.120142	495.155497	-85.080100	174.358068	542.491422	-119.994164	1.229873	393.311500	-101.570779	45.783226	391.217733	-180.726958	-49.105206	378.459124	-159.616604	188.807651	242.277653	-139.100033	81.418340	262.700058	-75.897885	94.047041	985.561271	-446.117963	177.467128	956.152310	-440.946999	196.860051	1006.684429	-434.586345	253.522800	920.007840	-422.662162	341.609310	847.688072	-401.515992	298.546900	741.649223	-433.524277	285.655666	656.020720	-429.695659	270.559959	571.945082	-419.834515	339.076823	649.398427	-400.661653	244.144106	446.962276	-409.868881	272.017855	458.974000	-323.402038	198.718644	399.849470	-368.055009	474.019052	433.866609	-388.914827	372.610633	391.792917	-451.103097	-227.985410	890.320946	-253.718460	-21.789224	80.136325	-454.162219	-21.191066	80.327108	-53.941789	
251	1.2550	488.776841	1308.858124	-164.055354	457.643134	1313.600686	-463.657590	416.664945	1390.781867	-304.933289	428.868725	1221.843587	-303.589303	566.735915	1055.188170	-49.792101	736.182738	854.279329	-89.324740	508.515618	1039.168917	-564.971164	0.000000	0.000000	-0.000000	-109.607503	1184.995612	-238.709885	89.381311	1224.145173	-458.150790	67.344382	1176.415868	-102.245581	83.129454	1149.126032	-433.484710	85.428206	1129.482504	-126.609323	-72.578831	1221.277962	-188.479056	-84.892535	1230.694108	-293.222712	12.370720	1059.907717	-65.987426	0.433176	1075.936888	-449.129759	107.976797	967.180325	-61.747543	165.590252	908.784251	-74.362615	223.329598	841.114650	-88.866969	201.864101	944.559226	-94.368538	256.576555	732.422411	-113.796672	183.851490	640.116540	-75.160160	139.629119	567.594055	-76.256452	84.712388	497.582508	-84.882660	174.016705	544.377704	-119.739728	0.464879	396.105661	-101.485367	44.567026	393.705159	-180.687751	-49.922853	381.282639	-159.561187	187.601038	244.717330	-139.213551	80.330876	265.335323	-75.916310	93.666564	985.374161	-446.193993	176.959877	955.535852	-440.888386	196.539267	1005.990293	-434.401194	252.797527	919.057991	-422.435128	340.626652	846.236604	-401.187667	298.318930	739.824863	-433.441139	285.882298	654.237269	-429.630578	271.334339	570.043503	-419.817944	339.341971	647.863542	-400.436093	245.389899	444.886191	-409.931571	273.145391	456.754573	-323.490995	200.053044	397.870695	-368.128709	475.462035	430.944752	-388.804762	373.963773	389.223173	-451.035544	-227.991176	890.317724	-253.710462	-21.779307	80.122435	-454.152900	-21.196784	80.295500	-53.948340	
252	1.2600	488.763542	1308.858630	-164.132122	457.552331	1313.359473	-463.749559	416.680327	1390.777280	-305.084861	428.814617	1221.743427	-303.543592	566.864299	1055.286023	-49.875770	736.148151	854.270757	-89.294869	508.432611	1039.016806	-565.103386	0.000000	0.000000	-0.000000	-109.872503	1185.629670	-239.178799	89.739546	1223.823298	-458.252879	66.744918	1177.190468	-102.317298	83.142079	1149.433602	-433.581409	84.890656	1130.275477	-126.621947	-72.918016	1222.032973	-188.884370	-84.899469	1231.178506	-293.652395	11.687650	1060.803108	-66.248785	0.435478	1076.119161	-449.166734	107.730186	968.304340	-61.643596	165.561293	910.059702	-74.081115	223.574989	842.607941	-88.552106	201.752609	946.021648	-94.058670	257.151925	734.202707	-113.401259	184.100637	642.116082	-74.855667	139.496242	569.747517	-76.038240	84.274688	499.992889	-84.714500	173.567227	546.190101	-119.416785	-0.320097	398.912773	-101.300569	43.135830	396.192943	-180.633059	-50.768964	384.239974	-159.476204	186.560477	247.247618	-139.284008	79.344831	267.995563	-75.877837	93.071202	985.285316	-446.152367	176.340196	954.898624	-440.831666	196.146707	1005.198949	-434.213757	251.984341	918.030637	-422.200488	339.617344	844.711176	-400.844559	298.034558	737.994756	-433.404913	286.057876	652.325538	-429.563730	272.069820	568.040424	-419.788119	339.532762	646.343082	-400.306579	246.630669	442.687899	-410.025342	274.251639	454.525291	-323.619120	198.617342	397.734479	-370.111455	476.857503	427.917697	-388.724754	375.237176	386.623013	-450.976781	-227.996558	890.316485	-253.705894	-21.784449	80.144855	-454.154739	-21.195754	80.330470	-53.937130	
253	1.2650	488.758676	1308.853517	-164.248473	457.455679	1313.198749	-463.797372	416.684561	1390.781531	-305.218236	428.733519	1221.698488	-303.493027	566.981813	1055.374915	-49.990988	736.140262	854.284624	-89.287084	508.348196	1038.899491	-565.221800	0.000000	0.000000	-0.000000	-110.051328	1186.218260	-239.627670	90.096818	1223.488851	-458.354952	66.201766	1178.051376	-102.349247	83.191185	1149.685631	-433.717350	84.361015	1131.026558	-126.676239	-73.238739	1222.708007	-189.331337	-84.962986	1231.641358	-294.101885	11.173795	1061.769684	-66.298718	0.409672	1076.302551	-449.227906	107.478560	969.453757	-61.420590	165.573590	911.371981	-73.790487	223.863823	844.134701	-88.162871	201.650526	947.457168	-93.721043	257.736113	735.963378	-113.002875	184.369412	644.163300	-74.537233	139.459873	572.013241	-75.804934	83.887963	502.484176	-84.572086	173.218636	548.052411	-119.062517	-1.006848	401.779329	-101.158724	41.480353	398.459260	-180.470381	-51.545024	387.155564	-159.236920	185.500559	249.771110	-139.407592	78.311384	270.757618	-75.799228	92.519110	984.951118	-446.109775	175.677384	954.184983	-440.833632	195.746159	1004.384927	-434.108572	251.069669	916.902224	-421.911821	338.539230	843.118083	-400.538273	297.656546	736.158824	-433.391236	286.203154	650.376348	-429.468961	272.753600	566.056503	-419.752514	339.613721	644.767822	-400.195576	247.791306	440.398389	-410.030834	275.296014	452.363286	-323.788005	202.767571	393.575247	-367.467964	478.328671	424.852181	-388.589898	376.518504	384.001787	-450.925439	-228.001077	890.316023	-253.703106	-21.795211	80.133461	-454.152663	-21.207386	80.307446	-53.951785	
